<svg width="54" height="54" viewBox="0 0 54 54" fill="none" xmlns="http://www.w3.org/2000/svg">
<rect x="-0.5" y="0.5" width="53" height="53" rx="11.5" transform="matrix(-1 0 0 1 53 0)" fill="#FAF4FF" stroke="#D3B3DB"/>
<path d="M32.4555 20.0314C33.1774 19.3446 33.1774 18.2315 32.4795 17.521C32.1185 17.1658 31.6613 17 31.18 17C30.7227 17 30.2655 17.1658 29.9285 17.521L21.5295 25.7389C21.1925 26.0705 21 26.5204 21 26.9941C21 27.4677 21.1925 27.9177 21.5295 28.2493L29.9285 36.4671C30.6264 37.1776 31.7575 37.1776 32.4795 36.4671C33.1774 35.7803 33.1774 34.6436 32.4555 33.9568L25.356 26.9941L32.4555 20.0314Z" fill="#A26CB0"/>
</svg>
