<svg width="30" height="42" viewBox="0 0 30 42" fill="none" xmlns="http://www.w3.org/2000/svg">
<path d="M2.75 0.833008C1.23122 0.833008 0 2.06422 0 3.58301V38.4163C0 39.9351 1.23122 41.1663 2.75 41.1663H26.5833C28.1021 41.1663 29.3333 39.9351 29.3333 38.4163V11.833L18.3333 0.833008H2.75Z" fill="#B380D0"/>
<path d="M2.75 0.833008C1.23122 0.833008 0 2.06422 0 3.58301V4.04134C0 2.52256 1.23122 1.29134 2.75 1.29134H18.7917L18.3333 0.833008H2.75Z" fill="#8A4AAF"/>
<path d="M29.3338 21.2285V11.8327L27.7296 10.2285H19.9936C19.3811 10.2285 19.0743 10.9691 19.5074 11.4022L29.3338 21.2285Z" fill="url(#paint0_linear_1097_1079)"/>
<path d="M18.334 0.833008L29.334 11.833H21.084C19.5652 11.833 18.334 10.6018 18.334 9.08301V0.833008Z" fill="#C4B5CD"/>
<path d="M22.0007 21H7.33398V22.8333H22.0007V21Z" fill="white"/>
<path d="M22.0007 24.6667H7.33398V26.5H22.0007V24.6667Z" fill="white"/>
<path d="M7.33398 28.3333H22.0007V30.1667H7.33398V28.3333Z" fill="white"/>
<path d="M18.334 32H7.33398V33.8333H18.334V32Z" fill="white"/>
<defs>
<linearGradient id="paint0_linear_1097_1079" x1="23.8338" y1="21.2285" x2="23.8338" y2="9.99935" gradientUnits="userSpaceOnUse">
<stop stop-color="#B380D0"/>
<stop offset="1" stop-color="#6D3676"/>
</linearGradient>
</defs>
</svg>
